<svg xmlns="http://www.w3.org/2000/svg" width="800" height="500" viewBox="0 0 800 500">
  <rect width="800" height="500" fill="#1B4332"/>
  <rect width="800" height="500" fill="url(#g)" opacity="0.35"/>
  <defs>
    <linearGradient id="g" x1="0" y1="0" x2="1" y2="1">
      <stop offset="0" stop-color="#95D5B2"/>
      <stop offset="1" stop-color="#1B4332"/>
    </linearGradient>
  </defs>
  <path d="M0 380 L140 300 L260 350 L420 260 L560 330 L700 280 L800 340 L800 500 L0 500 Z" fill="#2D6A4F"/>
  <path d="M0 430 L180 370 L340 410 L520 350 L680 400 L800 370 L800 500 L0 500 Z" fill="#40916C" opacity="0.7"/>
  <circle cx="660" cy="110" r="46" fill="#F4A261" opacity="0.9"/>
  <g fill="#95D5B2" opacity="0.9">
    <rect x="330" y="180" width="60" height="46" rx="6"/>
    <rect x="398" y="196" width="44" height="30" rx="6" opacity="0.7"/>
    <rect x="286" y="200" width="36" height="26" rx="6" opacity="0.6"/>
  </g>
  <text x="400" y="272" font-family="Segoe UI, Arial, sans-serif" font-size="26" fill="#FBFAF7" text-anchor="middle" font-weight="600">Photo: Nduba Landfill</text>
  <text x="400" y="302" font-family="Segoe UI, Arial, sans-serif" font-size="16" fill="#95D5B2" text-anchor="middle">Replace this image in assets/images/</text>
</svg>
